<svg xmlns="http://www.w3.org/2000/svg" width="24" height="24" viewBox="0 0 24 24" fill="none">
    <defs>
        <filter id="svgBlur" x="-50%" y="-50%" width="200%" height="200%">
            <feGaussianBlur in="SourceGraphic" stdDeviation="1.5" />
        </filter>

        <clipPath id="starClip">
            <path d="M7.26414 7.68C8.40209 6.59622 8.95363 5.87168 9.75243 4.52C10.5127 3.23353 11.1716 1.16704 11.4166 0.349318C11.4785 0.142728 11.6677 0 11.8833 0H11.9802C12.2033 0 12.3972 0.153414 12.4526 0.369546C12.5993 0.941438 12.9052 2.05274 13.2441 2.8C13.7281 3.86678 14.1158 4.4151 14.8094 5.36C15.9285 6.88469 16.6737 7.69417 18.1806 8.84C19.8334 10.0967 22.7123 11.1831 23.6755 11.5269C23.87 11.5963 24 11.7792 24 11.9857V12.0493C24 12.2582 23.8649 12.4431 23.6658 12.5066L21.9933 13.04C21.9933 13.04 20.7935 13.4989 20.0668 13.88C18.4329 14.7369 17.5783 15.3977 16.2942 16.72C15.1715 17.8762 14.623 18.6296 13.8461 20.04C13.2274 21.1632 12.6534 22.9181 12.4251 23.6555C12.3619 23.8596 12.1739 24 11.9602 24H11.8752C11.6634 24 11.4766 23.8612 11.4156 23.6583L10.9164 22C10.9164 22 10.4403 20.7745 10.0334 20.04C9.29846 18.7135 8.70648 18.0644 7.66547 16.96C6.36977 15.5854 5.58518 14.7997 3.93303 13.88C2.83496 13.2687 1.10125 12.7464 0.357816 12.5374C0.146982 12.4781 0 12.2869 0 12.0679V11.9537C0 11.7434 0.135752 11.5577 0.335623 11.4922C1.02872 11.265 2.64115 10.7124 3.69231 10.16C5.19609 9.36978 6.03507 8.85055 7.26414 7.68Z" />
        </clipPath>
    </defs>

    <g clip-path="url(#starClip)">
        <rect width="24" height="24" fill="#CB729F" fill-opacity="0.3" />

        <g filter="url(#svgBlur)">
            <ellipse cx="19.4057" cy="17.6715" rx="6.99359" ry="8.31885" fill="#583ED1" />
            <ellipse cx="3.16201" cy="17.2264" rx="7.22255" ry="6.33386" fill="#48AD99" />
            <ellipse cx="12.4588" cy="6.53011" rx="6.46369" ry="7.00985" fill="#E58AD7" />
        </g>
    </g>
</svg>