<?xml version="1.0" encoding="UTF-8" standalone="no"?>
<svg
   width="23.999001"
   height="27.615999"
   viewBox="0 0 23.999001 27.616"
   version="1.1"
   id="svg17"
   sodipodi:docname="dr_logo_new_solo.svg"
   inkscape:version="1.3.2 (091e20e, 2023-11-25, custom)"
   inkscape:export-filename="dr_logo_new.png"
   inkscape:export-xdpi="121.98222"
   inkscape:export-ydpi="121.98222"
   xmlns:inkscape="http://www.inkscape.org/namespaces/inkscape"
   xmlns:sodipodi="http://sodipodi.sourceforge.net/DTD/sodipodi-0.dtd"
   xmlns="http://www.w3.org/2000/svg"
   xmlns:svg="http://www.w3.org/2000/svg">
  <defs
     id="defs17">
    <clipPath
       clipPathUnits="userSpaceOnUse"
       id="clipPath4">
      <rect
         style="fill:none"
         id="rect5"
         width="26.288445"
         height="29.352741"
         x="-3.2565999e-09"
         y="18.385784" />
    </clipPath>
    <clipPath
       clipPathUnits="userSpaceOnUse"
       id="clipPath5">
      <rect
         style="fill:none"
         id="rect6"
         width="26.288445"
         height="29.352741"
         x="-3.2565999e-09"
         y="18.385784" />
    </clipPath>
    <clipPath
       clipPathUnits="userSpaceOnUse"
       id="clipPath6">
      <rect
         style="fill:none"
         id="rect7"
         width="26.288445"
         height="29.352741"
         x="-3.2565999e-09"
         y="18.385784" />
    </clipPath>
    <clipPath
       clipPathUnits="userSpaceOnUse"
       id="clipPath7">
      <rect
         style="fill:none"
         id="rect8"
         width="26.288445"
         height="29.352741"
         x="-3.2565999e-09"
         y="18.385784" />
    </clipPath>
    <clipPath
       clipPathUnits="userSpaceOnUse"
       id="clipPath8">
      <rect
         style="fill:none;stroke-width:0.800409"
         id="rect9"
         width="21.041515"
         height="23.494207"
         x="-1.0061145"
         y="-0.48522079" />
    </clipPath>
  </defs>
  <sodipodi:namedview
     id="namedview17"
     pagecolor="#ffffff"
     bordercolor="#000000"
     borderopacity="0.25"
     inkscape:showpageshadow="2"
     inkscape:pageopacity="0.0"
     inkscape:pagecheckerboard="0"
     inkscape:deskcolor="#d1d1d1"
     inkscape:zoom="6.2004426"
     inkscape:cx="80.074929"
     inkscape:cy="42.496966"
     inkscape:window-width="2560"
     inkscape:window-height="1369"
     inkscape:window-x="1912"
     inkscape:window-y="-8"
     inkscape:window-maximized="1"
     inkscape:current-layer="surface1"
     showguides="true" />
  <g
     id="surface1"
     transform="scale(1.2493608)"
     clip-path="url(#clipPath8)">
    <path
       style="fill:#f6f6f6;fill-opacity:1;fill-rule:nonzero;stroke:none"
       d="M 9.476562,21.992188 0,16.496094 V 5.5 L 9.476562,0 18.953125,5.5 v 10.996094 z m -7.683593,-6.535157 7.683593,4.457031 7.683594,-4.457031 V 6.539062 L 9.476562,2.078125 1.792969,6.539062 v 8.917969"
       id="path1" />
    <path
       style="fill:#f6f6f6;fill-opacity:1;fill-rule:nonzero;stroke:none"
       d="m 9.476562,18.101562 -6.125,-3.550781 V 7.445312 l 6.125,-3.554687 6.121094,3.554687 v 7.105469 z m -4.332031,-4.589843 4.332031,2.511719 4.332032,-2.511719 V 8.484375 L 9.476562,5.96875 5.144531,8.484375 v 5.027344"
       id="path2" />
    <path
       style="fill:#000000;fill-opacity:1;fill-rule:nonzero;stroke:none"
       d="m 64.265625,16.476562 h 2.195313 V 8.441406 h -2.195313 v 8.035156"
       id="path3" />
    <path
       style="fill:#000000;fill-opacity:1;fill-rule:nonzero;stroke:none"
       d="m 52.328125,7.71875 h 2.195313 V 5.511719 H 52.328125 V 7.71875"
       id="path4" />
    <path
       style="fill:#000000;fill-opacity:1;fill-rule:nonzero;stroke:none"
       d="m 58.707031,10.207031 c 0.160157,-0.117187 0.382813,-0.175781 0.664063,-0.175781 0.390625,0 0.742187,0.09766 1.050781,0.300781 0.304687,0.199219 0.519531,0.46875 0.636719,0.800781 l 1.625,-0.765624 C 62.4375,9.703125 62.019531,9.183594 61.429688,8.816406 60.839844,8.449219 60.152344,8.261719 59.371094,8.261719 c -0.59375,0 -1.121094,0.105469 -1.578125,0.316406 -0.460938,0.214844 -0.816407,0.503906 -1.070313,0.878906 -0.253906,0.371094 -0.382812,0.808594 -0.382812,1.308594 0,0.570313 0.175781,1.0625 0.527344,1.480469 0.351562,0.417968 0.855468,0.71875 1.511718,0.90625 l 1.359375,0.382812 c 0.175781,0.04687 0.324219,0.105469 0.441407,0.175782 0.117187,0.06641 0.203124,0.144531 0.261718,0.226562 0.05859,0.08594 0.08984,0.183594 0.08984,0.300781 0,0.226563 -0.08594,0.40625 -0.25,0.53125 -0.167969,0.128907 -0.40625,0.191407 -0.71875,0.191407 -0.429688,0 -0.820312,-0.121094 -1.171875,-0.367188 -0.351563,-0.246094 -0.628906,-0.585938 -0.832031,-1.015625 l -1.613282,0.765625 c 0.234376,0.707031 0.675782,1.269531 1.324219,1.683594 0.652344,0.417968 1.414063,0.628906 2.292969,0.628906 0.625,0 1.167969,-0.109375 1.625,-0.316406 0.460938,-0.214844 0.820312,-0.503906 1.078125,-0.878906 0.257813,-0.371094 0.386719,-0.808594 0.386719,-1.308594 0,-0.578125 -0.175782,-1.066406 -0.527344,-1.464844 -0.351562,-0.398438 -0.859375,-0.695312 -1.523438,-0.890625 l -1.273437,-0.382813 c -0.195313,-0.05859 -0.359375,-0.121093 -0.488281,-0.191406 -0.132813,-0.07031 -0.226563,-0.148437 -0.285156,-0.234375 -0.05859,-0.08984 -0.08984,-0.1875 -0.08984,-0.296875 0,-0.207031 0.08203,-0.367187 0.242187,-0.484375"
       id="path5" />
    <path
       style="fill:#000000;fill-opacity:1;fill-rule:nonzero;stroke:none"
       d="M 36.570312,10.308594 C 36.84375,10.125 37.167969,10.03125 37.550781,10.03125 c 0.390625,0 0.71875,0.09375 0.988281,0.285156 0.269532,0.191406 0.457032,0.453125 0.5625,0.78125 0.03906,0.113282 0.0625,0.234375 0.07422,0.359375 h -3.316406 c 0.02734,-0.113281 0.05469,-0.222656 0.09375,-0.324219 0.136719,-0.363281 0.34375,-0.636718 0.617186,-0.824218 z m 3.902344,-0.898438 c -0.335937,-0.363281 -0.75,-0.644531 -1.238281,-0.84375 -0.488281,-0.203125 -1.050781,-0.304687 -1.683594,-0.304687 -0.761719,0 -1.445312,0.183593 -2.050781,0.546875 -0.605469,0.363281 -1.085938,0.859375 -1.441406,1.488281 -0.359375,0.625 -0.535156,1.34375 -0.535156,2.148437 0,0.773438 0.167968,1.480469 0.511718,2.117188 0.339844,0.640625 0.824219,1.148438 1.449219,1.523438 0.625,0.378906 1.363281,0.570312 2.210937,0.570312 0.546876,0 1.050782,-0.08203 1.511719,-0.246094 0.457031,-0.160156 0.855469,-0.390625 1.191407,-0.683594 0.335937,-0.292968 0.582031,-0.636718 0.738281,-1.03125 l -1.753907,-0.839843 c -0.160156,0.277343 -0.375,0.492187 -0.652343,0.648437 -0.28125,0.160156 -0.613281,0.238282 -1.003907,0.238282 -0.429687,0 -0.796874,-0.09766 -1.097656,-0.289063 -0.304687,-0.191406 -0.527344,-0.457031 -0.675781,-0.800781 -0.07422,-0.179688 -0.125,-0.371094 -0.152344,-0.574219 h 5.601563 c 0.03906,-0.109375 0.06641,-0.238281 0.08203,-0.390625 0.01172,-0.152344 0.01953,-0.308594 0.01953,-0.464844 0,-0.558594 -0.08594,-1.078125 -0.261718,-1.550781 -0.175782,-0.476563 -0.433594,-0.898437 -0.769532,-1.261719"
       id="path6" />
    <path
       style="fill:#000000;fill-opacity:1;fill-rule:nonzero;stroke:none"
       d="m 52.328125,16.476562 h 2.195313 V 8.441406 h -2.195313 v 8.035156"
       id="path7" />
    <path
       style="fill:#000000;fill-opacity:1;fill-rule:nonzero;stroke:none"
       d="m 45.992188,10.53125 c 0.300781,-0.1875 0.636718,-0.28125 1.019531,-0.28125 0.429687,0 0.808593,0.117188 1.136719,0.355469 0.324218,0.234375 0.558593,0.554687 0.695312,0.957031 l 1.902344,-0.824219 c -0.15625,-0.503906 -0.414063,-0.9375 -0.777344,-1.304687 -0.359375,-0.367188 -0.792969,-0.65625 -1.300781,-0.859375 -0.507813,-0.207031 -1.0625,-0.3125 -1.65625,-0.3125 -0.800781,0 -1.523438,0.183593 -2.167969,0.546875 -0.644531,0.363281 -1.152344,0.859375 -1.523438,1.492187 -0.371093,0.632813 -0.554687,1.347657 -0.554687,2.144531 0,0.792969 0.1875,1.511719 0.5625,2.148438 0.375,0.636719 0.882813,1.140625 1.523437,1.507812 0.640626,0.367188 1.359376,0.554688 2.160157,0.554688 0.605469,0 1.160156,-0.109375 1.667969,-0.316406 C 49.1875,16.125 49.625,15.835938 49.984375,15.460938 c 0.363281,-0.371094 0.617187,-0.792969 0.761719,-1.265626 L 48.84375,13.355469 c -0.136719,0.402343 -0.367188,0.722656 -0.691406,0.957031 -0.320313,0.238281 -0.703125,0.355469 -1.140625,0.355469 -0.382813,0 -0.71875,-0.09375 -1.019531,-0.28125 -0.296876,-0.1875 -0.53125,-0.445313 -0.703126,-0.78125 -0.167968,-0.332031 -0.253906,-0.714844 -0.253906,-1.148438 0,-0.429687 0.08594,-0.8125 0.253906,-1.144531 0.171876,-0.335938 0.40625,-0.59375 0.703126,-0.78125"
       id="path8" />
    <path
       style="fill:#000000;fill-opacity:1;fill-rule:nonzero;stroke:none"
       d="m 29.558594,12.835938 c -0.285156,0.523437 -0.6875,0.929687 -1.207032,1.21875 -0.515624,0.292968 -1.132812,0.4375 -1.84375,0.4375 H 25.160156 V 7.496094 h 1.347656 c 0.710938,0 1.328126,0.144531 1.84375,0.429687 0.519532,0.285157 0.921876,0.6875 1.207032,1.207031 0.289062,0.519532 0.433594,1.136719 0.433594,1.855469 0,0.703125 -0.144532,1.320313 -0.433594,1.847657 z M 29.523438,6.21875 C 28.65625,5.746094 27.628906,5.511719 26.449219,5.511719 h -3.558594 v 10.964843 h 3.558594 c 1.179687,0 2.207031,-0.234374 3.074219,-0.707031 0.871093,-0.46875 1.542968,-1.121093 2.023437,-1.949219 0.476563,-0.828124 0.714844,-1.773437 0.714844,-2.832031 0,-1.0625 -0.238281,-2.003906 -0.714844,-2.828125 C 31.066406,7.335938 30.394531,6.6875 29.523438,6.21875"
       id="path9" />
    <path
       style="fill:#000000;fill-opacity:1;fill-rule:nonzero;stroke:none"
       d="m 64.265625,7.71875 h 2.195313 V 5.511719 H 64.265625 V 7.71875"
       id="path10" />
    <path
       style="fill:#000000;fill-opacity:1;fill-rule:nonzero;stroke:none"
       d="m 113.21094,10.308594 c 0.27344,-0.183594 0.60156,-0.277344 0.98437,-0.277344 0.39063,0 0.71875,0.09375 0.98828,0.285156 0.26563,0.191406 0.45704,0.453125 0.5625,0.78125 0.0391,0.113282 0.0625,0.234375 0.0742,0.359375 h -3.3164 c 0.0273,-0.113281 0.0547,-0.222656 0.0937,-0.324219 0.13672,-0.363281 0.33984,-0.636718 0.61328,-0.824218 z m 3.90625,-0.898438 c -0.33985,-0.363281 -0.75,-0.644531 -1.23828,-0.84375 -0.48828,-0.203125 -1.05078,-0.304687 -1.6836,-0.304687 -0.76172,0 -1.44531,0.183593 -2.05078,0.546875 -0.60547,0.363281 -1.08594,0.859375 -1.44531,1.488281 -0.35547,0.625 -0.53125,1.34375 -0.53125,2.148437 0,0.773438 0.16797,1.480469 0.51172,2.117188 0.33984,0.640625 0.82422,1.148438 1.44922,1.523438 0.625,0.378906 1.36328,0.570312 2.21093,0.570312 0.54688,0 1.05079,-0.08203 1.50782,-0.246094 0.46093,-0.160156 0.85937,-0.390625 1.19531,-0.683594 0.33594,-0.292968 0.58203,-0.636718 0.73828,-1.03125 l -1.75781,-0.839843 c -0.15625,0.277343 -0.3711,0.492187 -0.65235,0.648437 -0.27734,0.160156 -0.60937,0.238282 -1,0.238282 -0.42968,0 -0.79687,-0.09766 -1.10156,-0.289063 -0.30078,-0.191406 -0.52734,-0.457031 -0.67187,-0.800781 -0.0742,-0.179688 -0.125,-0.371094 -0.15235,-0.574219 h 5.60157 c 0.0391,-0.109375 0.0664,-0.238281 0.0781,-0.390625 0.0156,-0.152344 0.0234,-0.308594 0.0234,-0.464844 0,-0.558594 -0.0859,-1.078125 -0.26172,-1.550781 -0.17578,-0.476563 -0.43359,-0.898437 -0.76953,-1.261719"
       id="path11" />
    <path
       style="fill:#000000;fill-opacity:1;fill-rule:nonzero;stroke:none"
       d="m 123.90625,11.796875 -1.27734,-0.382813 c -0.19532,-0.05859 -0.35938,-0.121093 -0.48828,-0.191406 -0.13282,-0.07031 -0.22657,-0.148437 -0.28516,-0.234375 -0.0586,-0.08984 -0.0898,-0.1875 -0.0898,-0.296875 0,-0.207031 0.082,-0.367187 0.24218,-0.484375 0.16016,-0.117187 0.38282,-0.175781 0.66797,-0.175781 0.39063,0 0.73828,0.09766 1.04688,0.300781 0.30468,0.199219 0.51953,0.46875 0.63672,0.800781 l 1.625,-0.765624 c -0.2461,-0.664063 -0.66016,-1.183594 -1.25391,-1.550782 -0.58984,-0.367187 -1.27344,-0.554687 -2.05469,-0.554687 -0.59765,0 -1.125,0.105469 -1.58203,0.316406 -0.46094,0.214844 -0.81641,0.503906 -1.07031,0.878906 -0.25391,0.371094 -0.38281,0.808594 -0.38281,1.308594 0,0.570313 0.17578,1.0625 0.52734,1.480469 0.35156,0.417968 0.85547,0.71875 1.51172,0.90625 l 1.35937,0.382812 c 0.17578,0.04687 0.32422,0.105469 0.44141,0.175782 0.11719,0.06641 0.20312,0.144531 0.26172,0.226562 0.0586,0.08594 0.0898,0.183594 0.0898,0.300781 0,0.226563 -0.082,0.40625 -0.25,0.53125 -0.16797,0.128907 -0.40625,0.191407 -0.71875,0.191407 -0.42969,0 -0.82031,-0.121094 -1.17187,-0.367188 -0.35157,-0.246094 -0.62891,-0.585938 -0.83203,-1.015625 l -1.61329,0.765625 c 0.23438,0.707031 0.67579,1.269531 1.32813,1.683594 0.64844,0.417968 1.41016,0.628906 2.28906,0.628906 0.625,0 1.16797,-0.109375 1.62891,-0.316406 0.45703,-0.214844 0.8164,-0.503906 1.07422,-0.878906 0.25781,-0.371094 0.38672,-0.808594 0.38672,-1.308594 0,-0.578125 -0.17579,-1.066406 -0.52735,-1.464844 -0.35156,-0.398438 -0.85937,-0.695312 -1.51953,-0.890625"
       id="path12" />
    <path
       style="fill:#000000;fill-opacity:1;fill-rule:nonzero;stroke:none"
       d="m 102.28516,13.136719 c 0,0.304687 -0.0586,0.570312 -0.1836,0.800781 -0.12109,0.230469 -0.29297,0.410156 -0.51172,0.539062 -0.21875,0.125 -0.47656,0.191407 -0.76953,0.191407 -0.28125,0 -0.53515,-0.06641 -0.76172,-0.191407 C 99.835938,14.347656 99.664062,14.167969 99.539062,13.9375 99.417969,13.707031 99.355469,13.441406 99.355469,13.136719 V 8.441406 H 97.160156 V 13.3125 c 0,0.667969 0.117188,1.25 0.351563,1.753906 0.234375,0.5 0.578125,0.886719 1.03125,1.167969 0.457031,0.28125 1.003906,0.421875 1.648441,0.421875 0.55859,0 1.04297,-0.117188 1.45703,-0.347656 0.33984,-0.1875 0.59765,-0.460938 0.78515,-0.8125 v 0.980468 h 2.05079 V 8.441406 h -2.19922 v 4.695313"
       id="path13" />
    <path
       style="fill:#000000;fill-opacity:1;fill-rule:nonzero;stroke:none"
       d="m 106.38672,16.476562 h 2.19922 V 5.335938 h -2.19922 v 11.140624"
       id="path14" />
    <path
       style="fill:#000000;fill-opacity:1;fill-rule:nonzero;stroke:none"
       d="m 74.085938,13.605469 c -0.171876,0.335937 -0.40625,0.59375 -0.703126,0.78125 -0.296874,0.1875 -0.648437,0.28125 -1.046874,0.28125 -0.402344,0 -0.753907,-0.09375 -1.054688,-0.28125 -0.304688,-0.1875 -0.539062,-0.445313 -0.710938,-0.78125 -0.171874,-0.332031 -0.257812,-0.714844 -0.257812,-1.148438 0,-0.429687 0.08594,-0.808593 0.257812,-1.140625 0.171876,-0.328125 0.40625,-0.585937 0.710938,-0.777344 C 71.582031,10.347656 71.933594,10.25 72.335938,10.25 c 0.398437,0 0.75,0.09766 1.046874,0.289062 0.296876,0.191407 0.53125,0.449219 0.703126,0.777344 0.171874,0.332032 0.253906,0.710938 0.253906,1.140625 0,0.433594 -0.08203,0.816407 -0.253906,1.148438 z M 74.488281,8.808594 C 73.84375,8.445312 73.125,8.261719 72.335938,8.261719 c -0.792969,0 -1.511719,0.183593 -2.160157,0.546875 -0.652343,0.363281 -1.167969,0.859375 -1.554687,1.488281 -0.386719,0.625 -0.578125,1.347656 -0.578125,2.160156 0,0.804688 0.191406,1.527344 0.578125,2.160157 0.386718,0.632812 0.902344,1.128906 1.554687,1.492187 0.648438,0.363281 1.367188,0.546875 2.160157,0.546875 0.789062,0 1.507812,-0.183594 2.152343,-0.546875 0.644531,-0.363281 1.160157,-0.859375 1.542969,-1.492187 0.386719,-0.632813 0.582031,-1.355469 0.582031,-2.160157 0,-0.8125 -0.195312,-1.535156 -0.582031,-2.160156 -0.382812,-0.628906 -0.898438,-1.125 -1.542969,-1.488281"
       id="path15" />
    <path
       style="fill:#000000;fill-opacity:1;fill-rule:nonzero;stroke:none"
       d="M 84.074219,8.644531 C 83.621094,8.390625 83.089844,8.261719 82.484375,8.261719 c -0.554687,0 -1.042969,0.117187 -1.457031,0.347656 -0.335938,0.1875 -0.597656,0.460937 -0.785156,0.8125 V 8.441406 h -2.050782 v 8.035156 h 2.199219 V 11.78125 c 0,-0.3125 0.0625,-0.582031 0.183594,-0.808594 0.121093,-0.226562 0.292969,-0.402344 0.519531,-0.53125 0.222656,-0.125 0.476562,-0.191406 0.761719,-0.191406 0.292969,0 0.546875,0.06641 0.769531,0.191406 0.21875,0.128906 0.390625,0.304688 0.511719,0.53125 0.121093,0.226563 0.183593,0.496094 0.183593,0.808594 v 4.695312 h 2.195313 V 11.3125 c 0,-0.609375 -0.125,-1.144531 -0.378906,-1.597656 -0.253907,-0.457032 -0.609375,-0.8125 -1.0625,-1.070313"
       id="path16" />
    <path
       style="fill:#000000;fill-opacity:1;fill-rule:nonzero;stroke:none"
       d="m 92.992188,9.792969 c -0.128907,0.226562 -0.3125,0.402343 -0.546876,0.53125 -0.234374,0.128906 -0.511718,0.191406 -0.835937,0.191406 H 89.691406 V 7.496094 h 1.917969 c 0.324219,0 0.601563,0.066406 0.835937,0.191406 0.234376,0.128906 0.417969,0.304688 0.546876,0.53125 0.132812,0.226562 0.199218,0.492188 0.199218,0.796875 0,0.292969 -0.06641,0.554687 -0.199218,0.777344 z m 1.957031,1.128906 c 0.339843,-0.527344 0.511719,-1.160156 0.511719,-1.90625 0,-0.765625 -0.164063,-1.410156 -0.496094,-1.929687 -0.332032,-0.519532 -0.789063,-0.914063 -1.371094,-1.175782 -0.582031,-0.265625 -1.246094,-0.398437 -2,-0.398437 h -4.171875 v 10.964843 h 2.269531 v -3.972656 h 1.609375 l 2.210938,3.972656 H 96.0625 l -2.492188,-4.371093 c 0.578126,-0.265625 1.035157,-0.660157 1.378907,-1.183594"
       id="path17" />
  </g>
  <path
     style="fill:#000000;stroke-width:0.161279"
     d="m 29.997859,32.739598 v -6.77371 h 2.707855 c 1.879947,0 2.990248,0.07355 3.631483,0.240575 2.133713,0.555762 3.649606,1.769712 4.533024,3.630117 0.463498,0.976088 0.497564,1.170537 0.494456,2.822379 -0.0042,2.226085 -0.350439,3.208607 -1.610308,4.569415 -1.674457,1.808614 -3.144733,2.27892 -7.13573,2.28255 l -2.62078,0.0024 z m 6.585274,3.934658 c 1.462047,-0.728568 2.161214,-1.996269 2.170058,-3.934658 0.01312,-2.87633 -1.449681,-4.281289 -4.656779,-4.472627 L 32.57832,28.1764 v 4.458863 4.458863 h 1.581122 c 1.379991,0 1.688303,-0.05341 2.423691,-0.41987 z"
     id="path18"
     clip-path="url(#clipPath7)"
     transform="translate(-0.28932682,-0.12237979)" />
  <rect
     style="fill:none"
     id="rect1"
     width="29.514023"
     height="30.159138"
     x="0.32255763"
     y="18.224506"
     clip-path="url(#clipPath6)"
     transform="translate(-0.28932682,-0.12237979)" />
  <rect
     style="fill:none"
     id="rect2"
     width="25.48205"
     height="29.030186"
     x="0.48383641"
     y="18.224504"
     clip-path="url(#clipPath5)"
     transform="translate(-0.28932682,-0.12237979)" />
  <rect
     style="fill:none"
     id="rect3"
     width="25.804609"
     height="28.868904"
     x="0.3225576"
     y="18.224506"
     clip-path="url(#clipPath4)"
     transform="translate(-0.28932682,-0.12237979)" />
</svg>
