<?xml version="1.0" encoding="UTF-8"?>
<svg xmlns="http://www.w3.org/2000/svg" xmlns:xlink="http://www.w3.org/1999/xlink" width="100pt" height="100pt" viewBox="0 0 100 100" version="1.1">
<g id="surface1">
<rect x="0" y="0" width="100" height="100" style="fill:rgb(100%,100%,100%);fill-opacity:1;stroke:none;"/>
<path style=" stroke:none;fill-rule:evenodd;fill:rgb(19.215686%,45.490196%,72.54902%);fill-opacity:1;" d="M 41.695312 52.777344 C 41.695312 52.777344 39.308594 54.164062 43.398438 54.636719 C 48.355469 55.203125 50.886719 55.121094 56.347656 54.085938 C 56.347656 54.085938 57.785156 54.988281 59.789062 55.765625 C 47.546875 61.011719 32.082031 55.460938 41.695312 52.777344 Z M 40.199219 45.929688 C 40.199219 45.929688 37.519531 47.914062 41.613281 48.335938 C 46.910156 48.882812 51.089844 48.925781 58.324219 47.535156 C 58.324219 47.535156 59.324219 48.550781 60.894531 49.105469 C 46.09375 53.433594 29.609375 49.445312 40.199219 45.929688 Z M 40.199219 45.929688 "/>
<path style=" stroke:none;fill-rule:evenodd;fill:rgb(79.215686%,19.215686%,19.607843%);fill-opacity:1;" d="M 52.8125 34.3125 C 55.828125 37.789062 52.019531 40.914062 52.019531 40.914062 C 52.019531 40.914062 59.679688 36.960938 56.164062 32.007812 C 52.878906 27.390625 50.359375 25.097656 63.996094 17.1875 C 63.996094 17.1875 42.585938 22.53125 52.8125 34.3125 Z M 52.8125 34.3125 "/>
<path style=" stroke:none;fill-rule:evenodd;fill:rgb(19.215686%,45.490196%,72.54902%);fill-opacity:1;" d="M 69.003906 57.839844 C 69.003906 57.839844 70.773438 59.296875 67.058594 60.425781 C 59.992188 62.566406 37.644531 63.210938 31.4375 60.511719 C 29.207031 59.539062 33.390625 58.191406 34.707031 57.910156 C 36.078125 57.613281 36.863281 57.667969 36.863281 57.667969 C 34.382812 55.917969 20.824219 61.097656 29.976562 62.582031 C 54.9375 66.632812 75.476562 60.761719 69.003906 57.839844 Z M 42.84375 38.835938 C 42.84375 38.835938 31.480469 41.535156 38.820312 42.515625 C 41.921875 42.929688 48.097656 42.835938 53.855469 42.351562 C 58.5625 41.957031 63.28125 41.113281 63.28125 41.113281 C 63.28125 41.113281 61.625 41.824219 60.425781 42.644531 C 48.882812 45.679688 26.585938 44.265625 33.003906 41.160156 C 38.429688 38.535156 42.84375 38.835938 42.84375 38.835938 Z M 63.234375 50.230469 C 74.96875 44.136719 69.542969 38.277344 65.757812 39.066406 C 64.832031 39.257812 64.414062 39.425781 64.414062 39.425781 C 64.414062 39.425781 64.761719 38.886719 65.417969 38.652344 C 72.910156 36.019531 78.671875 46.421875 63 50.539062 C 63 50.539062 63.183594 50.375 63.234375 50.230469 Z M 63.234375 50.230469 "/>
<path style=" stroke:none;fill-rule:evenodd;fill:rgb(79.215686%,19.215686%,19.607843%);fill-opacity:1;" d="M 56.164062 4.410156 C 56.164062 4.410156 62.660156 10.914062 50 20.90625 C 39.84375 28.925781 47.683594 33.496094 49.996094 38.722656 C 44.066406 33.375 39.71875 28.667969 42.636719 24.285156 C 46.917969 17.855469 58.785156 14.738281 56.164062 4.410156 Z M 56.164062 4.410156 "/>
<path style=" stroke:none;fill-rule:evenodd;fill:rgb(19.215686%,45.490196%,72.54902%);fill-opacity:1;" d="M 44 66.753906 C 55.261719 67.476562 72.554688 66.355469 72.96875 61.023438 C 72.96875 61.023438 72.179688 63.046875 63.660156 64.648438 C 54.046875 66.457031 42.1875 66.246094 35.15625 65.085938 C 35.15625 65.085938 36.597656 66.277344 44 66.753906 Z M 44 66.753906 "/>
<path style=" stroke:none;fill-rule:evenodd;fill:rgb(79.215686%,19.215686%,19.607843%);fill-opacity:1;" d="M 72.445312 76.3125 L 72.105469 76.3125 L 72.105469 76.121094 L 73.027344 76.121094 L 73.027344 76.3125 L 72.6875 76.3125 L 72.6875 77.269531 L 72.445312 77.269531 Z M 74.289062 76.359375 L 74.285156 76.359375 L 73.945312 77.269531 L 73.789062 77.269531 L 73.453125 76.359375 L 73.445312 76.359375 L 73.445312 77.269531 L 73.21875 77.269531 L 73.21875 76.121094 L 73.554688 76.121094 L 73.867188 76.933594 L 74.179688 76.121094 L 74.511719 76.121094 L 74.511719 77.269531 L 74.289062 77.269531 Z M 42.15625 87.117188 C 41.09375 88.035156 39.96875 88.554688 38.960938 88.554688 C 37.527344 88.554688 36.746094 87.691406 36.746094 86.3125 C 36.746094 84.816406 37.582031 83.722656 40.917969 83.722656 L 42.152344 83.722656 L 42.152344 87.117188 Z M 45.085938 90.421875 L 45.085938 80.1875 C 45.085938 77.570312 43.59375 75.84375 39.996094 75.84375 C 37.898438 75.84375 36.058594 76.359375 34.5625 77.023438 L 34.992188 78.835938 C 36.171875 78.402344 37.695312 78 39.191406 78 C 41.261719 78 42.152344 78.835938 42.152344 80.5625 L 42.152344 81.855469 L 41.117188 81.855469 C 36.085938 81.855469 33.8125 83.808594 33.8125 86.742188 C 33.8125 89.273438 35.308594 90.710938 38.128906 90.710938 C 39.9375 90.710938 41.292969 89.964844 42.554688 88.871094 L 42.785156 90.421875 Z M 54.867188 90.421875 L 51.214844 90.421875 L 46.8125 76.101562 L 50.003906 76.101562 L 52.738281 84.902344 L 53.34375 87.546875 C 54.722656 83.722656 55.699219 79.839844 56.191406 76.101562 L 59.292969 76.101562 C 58.464844 80.816406 56.964844 85.996094 54.867188 90.421875 Z M 68.894531 87.117188 C 67.828125 88.035156 66.707031 88.554688 65.703125 88.554688 C 64.265625 88.554688 63.488281 87.691406 63.488281 86.3125 C 63.488281 84.816406 64.320312 83.722656 67.660156 83.722656 L 68.894531 83.722656 Z M 71.828125 90.421875 L 71.828125 80.1875 C 71.828125 77.570312 70.332031 75.84375 66.738281 75.84375 C 64.636719 75.84375 62.796875 76.359375 61.300781 77.023438 L 61.734375 78.835938 C 62.910156 78.402344 64.4375 78 65.933594 78 C 68 78 68.894531 78.835938 68.894531 80.5625 L 68.894531 81.855469 L 67.859375 81.855469 C 62.824219 81.855469 60.554688 83.808594 60.554688 86.742188 C 60.554688 89.273438 62.050781 90.710938 64.867188 90.710938 C 66.679688 90.710938 68.03125 89.964844 69.296875 88.871094 L 69.527344 90.421875 Z M 30.601562 92.855469 C 29.765625 94.078125 28.414062 95.042969 26.9375 95.589844 L 25.488281 93.882812 C 26.613281 93.304688 27.578125 92.375 28.027344 91.507812 C 28.414062 90.734375 28.574219 89.738281 28.574219 87.359375 L 28.574219 71.011719 L 31.691406 71.011719 L 31.691406 87.132812 C 31.691406 90.316406 31.4375 91.601562 30.601562 92.855469 Z M 30.601562 92.855469 "/>
</g>
</svg>
