<?xml version="1.0" encoding="UTF-8"?>
<svg xmlns="http://www.w3.org/2000/svg" xmlns:xlink="http://www.w3.org/1999/xlink" width="50pt" height="50pt" viewBox="0 0 50 50" version="1.1">
<g id="surface1">
<rect x="0" y="0" width="50" height="50" style="fill:rgb(100%,100%,100%);fill-opacity:1;stroke:none;"/>
<path style=" stroke:none;fill-rule:evenodd;fill:rgb(19.215686%,45.490196%,72.54902%);fill-opacity:1;" d="M 20.847656 26.390625 C 20.847656 26.390625 19.65625 27.082031 21.699219 27.320312 C 24.179688 27.601562 25.445312 27.5625 28.171875 27.042969 C 28.171875 27.042969 28.890625 27.492188 29.894531 27.882812 C 23.773438 30.507812 16.039062 27.730469 20.847656 26.390625 Z M 20.101562 22.964844 C 20.101562 22.964844 18.757812 23.957031 20.804688 24.167969 C 23.453125 24.441406 25.546875 24.460938 29.164062 23.765625 C 29.164062 23.765625 29.664062 24.273438 30.445312 24.554688 C 23.046875 26.71875 14.804688 24.722656 20.101562 22.964844 Z M 20.101562 22.964844 "/>
<path style=" stroke:none;fill-rule:evenodd;fill:rgb(79.215686%,19.215686%,19.607843%);fill-opacity:1;" d="M 26.40625 17.15625 C 27.914062 18.894531 26.007812 20.457031 26.007812 20.457031 C 26.007812 20.457031 29.839844 18.480469 28.082031 16.003906 C 26.4375 13.695312 25.179688 12.546875 32 8.59375 C 32 8.59375 21.292969 11.265625 26.40625 17.15625 Z M 26.40625 17.15625 "/>
<path style=" stroke:none;fill-rule:evenodd;fill:rgb(19.215686%,45.490196%,72.54902%);fill-opacity:1;" d="M 34.5 28.921875 C 34.5 28.921875 35.386719 29.648438 33.53125 30.210938 C 29.996094 31.28125 18.820312 31.605469 15.71875 30.257812 C 14.601562 29.769531 16.695312 29.09375 17.351562 28.953125 C 18.039062 28.804688 18.429688 28.835938 18.429688 28.835938 C 17.191406 27.960938 10.414062 30.546875 14.988281 31.289062 C 27.46875 33.316406 37.738281 30.382812 34.5 28.921875 Z M 21.421875 19.417969 C 21.421875 19.417969 15.742188 20.765625 19.410156 21.257812 C 20.960938 21.464844 24.046875 21.417969 26.929688 21.175781 C 29.28125 20.976562 31.640625 20.554688 31.640625 20.554688 C 31.640625 20.554688 30.8125 20.914062 30.210938 21.320312 C 24.441406 22.839844 13.292969 22.132812 16.5 20.578125 C 19.214844 19.265625 21.421875 19.417969 21.421875 19.417969 Z M 31.617188 25.117188 C 37.484375 22.070312 34.773438 19.140625 32.878906 19.53125 C 32.414062 19.628906 32.207031 19.710938 32.207031 19.710938 C 32.207031 19.710938 32.382812 19.445312 32.710938 19.328125 C 36.453125 18.007812 39.335938 23.210938 31.5 25.269531 C 31.5 25.269531 31.59375 25.1875 31.617188 25.117188 Z M 31.617188 25.117188 "/>
<path style=" stroke:none;fill-rule:evenodd;fill:rgb(79.215686%,19.215686%,19.607843%);fill-opacity:1;" d="M 28.082031 2.203125 C 28.082031 2.203125 31.328125 5.457031 25 10.453125 C 19.921875 14.460938 23.84375 16.75 25 19.359375 C 22.03125 16.6875 19.859375 14.335938 21.320312 12.140625 C 23.460938 8.929688 29.390625 7.367188 28.082031 2.203125 Z M 28.082031 2.203125 "/>
<path style=" stroke:none;fill-rule:evenodd;fill:rgb(19.215686%,45.490196%,72.54902%);fill-opacity:1;" d="M 22 33.375 C 27.632812 33.738281 36.277344 33.179688 36.484375 30.511719 C 36.484375 30.511719 36.089844 31.523438 31.828125 32.324219 C 27.023438 33.226562 21.09375 33.125 17.578125 32.542969 C 17.578125 32.542969 18.296875 33.140625 22 33.375 Z M 22 33.375 "/>
<path style=" stroke:none;fill-rule:evenodd;fill:rgb(79.215686%,19.215686%,19.607843%);fill-opacity:1;" d="M 36.222656 38.15625 L 36.054688 38.15625 L 36.054688 38.0625 L 36.515625 38.0625 L 36.515625 38.15625 L 36.34375 38.15625 L 36.34375 38.632812 L 36.222656 38.632812 Z M 37.144531 38.179688 L 37.140625 38.179688 L 36.972656 38.632812 L 36.894531 38.632812 L 36.726562 38.179688 L 36.722656 38.179688 L 36.722656 38.632812 L 36.609375 38.632812 L 36.609375 38.0625 L 36.777344 38.0625 L 36.933594 38.46875 L 37.089844 38.0625 L 37.257812 38.0625 L 37.257812 38.632812 L 37.144531 38.632812 Z M 21.078125 43.558594 C 20.546875 44.015625 19.984375 44.277344 19.480469 44.277344 C 18.765625 44.277344 18.375 43.84375 18.375 43.15625 C 18.375 42.40625 18.789062 41.859375 20.460938 41.859375 L 21.078125 41.859375 Z M 22.542969 45.210938 L 22.542969 40.09375 C 22.542969 38.785156 21.796875 37.921875 20 37.921875 C 18.949219 37.921875 18.03125 38.179688 17.28125 38.511719 L 17.496094 39.417969 C 18.085938 39.203125 18.847656 39 19.59375 39 C 20.632812 39 21.078125 39.417969 21.078125 40.28125 L 21.078125 40.929688 L 20.558594 40.929688 C 18.042969 40.929688 16.90625 41.90625 16.90625 43.371094 C 16.90625 44.636719 17.65625 45.355469 19.0625 45.355469 C 19.96875 45.355469 20.648438 44.984375 21.277344 44.4375 L 21.390625 45.210938 Z M 27.433594 45.210938 L 25.609375 45.210938 L 23.40625 38.050781 L 25 38.050781 L 26.367188 42.453125 L 26.671875 43.773438 C 27.359375 41.859375 27.851562 39.921875 28.09375 38.050781 L 29.648438 38.050781 C 29.234375 40.40625 28.484375 43 27.433594 45.210938 Z M 34.445312 43.558594 C 33.914062 44.015625 33.351562 44.277344 32.851562 44.277344 C 32.132812 44.277344 31.742188 43.84375 31.742188 43.15625 C 31.742188 42.40625 32.160156 41.859375 33.828125 41.859375 L 34.445312 41.859375 Z M 35.914062 45.210938 L 35.914062 40.09375 C 35.914062 38.785156 35.164062 37.921875 33.367188 37.921875 C 32.320312 37.921875 31.398438 38.179688 30.648438 38.511719 L 30.867188 39.417969 C 31.453125 39.203125 32.21875 39 32.96875 39 C 34 39 34.445312 39.417969 34.445312 40.28125 L 34.445312 40.929688 L 33.929688 40.929688 C 31.414062 40.929688 30.277344 41.90625 30.277344 43.371094 C 30.277344 44.636719 31.023438 45.355469 32.433594 45.355469 C 33.339844 45.355469 34.015625 44.984375 34.648438 44.4375 L 34.765625 45.210938 Z M 15.300781 46.429688 C 14.882812 47.039062 14.207031 47.523438 13.46875 47.796875 L 12.742188 46.941406 C 13.304688 46.652344 13.789062 46.1875 14.015625 45.753906 C 14.207031 45.367188 14.289062 44.867188 14.289062 43.679688 L 14.289062 35.507812 L 15.84375 35.507812 L 15.84375 43.566406 C 15.84375 45.15625 15.71875 45.800781 15.300781 46.429688 Z M 15.300781 46.429688 "/>
</g>
</svg>
