<?xml version="1.0" encoding="UTF-8" standalone="no"?>
<svg
   xmlns:dc="http://purl.org/dc/elements/1.1/"
   xmlns:cc="http://creativecommons.org/ns#"
   xmlns:rdf="http://www.w3.org/1999/02/22-rdf-syntax-ns#"
   xmlns:svg="http://www.w3.org/2000/svg"
   xmlns="http://www.w3.org/2000/svg"
   xmlns:sodipodi="http://sodipodi.sourceforge.net/DTD/sodipodi-0.dtd"
   xmlns:inkscape="http://www.inkscape.org/namespaces/inkscape"
   inkscape:version="1.0 (4035a4fb49, 2020-05-01)"
   height="100"
   width="100"
   sodipodi:docname="netcore.svg"
   version="1.1"
   viewBox="0 0 100 100"
   data-name="Layer 1"
   id="Layer_1">
  <metadata
     id="metadata31">
    <rdf:RDF>
      <cc:Work
         rdf:about="">
        <dc:format>image/svg+xml</dc:format>
        <dc:type
           rdf:resource="http://purl.org/dc/dcmitype/StillImage" />
        <dc:title>logo_NETcore</dc:title>
      </cc:Work>
    </rdf:RDF>
  </metadata>
  <sodipodi:namedview
     inkscape:current-layer="Layer_1"
     inkscape:window-maximized="1"
     inkscape:window-y="-8"
     inkscape:window-x="1912"
     inkscape:cy="46.754447"
     inkscape:cx="38.109618"
     inkscape:zoom="6.640625"
     showgrid="false"
     id="namedview29"
     inkscape:window-height="1017"
     inkscape:window-width="1920"
     inkscape:pageshadow="2"
     inkscape:pageopacity="0"
     guidetolerance="10"
     gridtolerance="10"
     objecttolerance="10"
     borderopacity="1"
     bordercolor="#666666"
     pagecolor="#ffffff" />
  <defs
     id="defs4">
    <style
       id="style2">.cls-1{fill:#5c2d91;}.cls-2,.cls-3{fill:#fff;}.cls-2{opacity:0.1;}.cls-4{fill:#f2f2f2;}</style>
  </defs>
  <title
     id="title6">logo_NETcore</title>
  <circle
     style="stroke-width:1.52679"
     id="circle8"
     r="48.857151"
     cy="50.061855"
     cx="50.079319"
     class="cls-1" />
  <path
     style="stroke-width:1.52679"
     id="path10"
     d="M 16.215204,14.94578 A 48.857152,48.857152 0 1 0 85.195396,83.925972 Z"
     class="cls-2" />
  <path
     style="stroke-width:1.52679"
     id="path12"
     d="m 12.520382,58.077485 a 2.0611611,2.0611611 0 0 1 -1.526786,-0.64125 2.1069647,2.1069647 0 0 1 -0.625982,-1.526786 2.1375004,2.1375004 0 0 1 0.625982,-1.526786 2.0458933,2.0458933 0 0 1 1.526786,-0.656518 2.0916968,2.0916968 0 0 1 1.526786,0.656518 2.1222326,2.1222326 0 0 1 0.64125,1.526786 2.0916968,2.0916968 0 0 1 -0.64125,1.526786 2.1069647,2.1069647 0 0 1 -1.526786,0.64125 z"
     class="cls-3" />
  <path
     style="stroke-width:1.52679"
     id="path14"
     d="M 42.85762,57.695789 H 38.857441 L 24.551456,35.49632 A 9.1607161,9.1607161 0 0 1 23.66592,33.755784 h -0.122143 a 28.581434,28.581434 0 0 1 0.152679,3.816965 v 20.12304 H 20.444401 V 29.86248 h 4.229198 l 13.924288,21.802504 q 0.870268,1.358839 1.129822,1.862679 h 0.07634 A 29.436434,29.436434 0 0 1 39.605566,49.435876 V 29.86248 h 3.252054 z"
     class="cls-3" />
  <path
     style="stroke-width:1.52679"
     id="path16"
     d="M 64.873874,57.695789 H 50.079318 V 29.86248 h 14.107503 v 2.946697 H 53.407711 V 42.0615 h 10.046252 v 2.931429 H 53.407711 v 9.649288 h 11.481431 z"
     class="cls-3" />
  <path
     style="stroke-width:1.52679"
     id="path18"
     d="M 86.722182,32.809177 H 78.630216 V 57.695789 H 75.378162 V 32.809177 H 67.377803 V 29.86248 h 19.344379 z"
     class="cls-3" />
  <path
     style="stroke-width:1.52679"
     id="path20"
     d="m 41.101816,76.627935 a 7.5270551,7.5270551 0 0 1 -3.542143,0.748125 5.7101797,5.7101797 0 0 1 -4.381876,-1.755804 6.5041084,6.5041084 0 0 1 -1.648929,-4.580358 6.8094656,6.8094656 0 0 1 1.847411,-4.977322 6.2903584,6.2903584 0 0 1 4.702501,-1.893215 7.5270551,7.5270551 0 0 1 3.053572,0.534375 v 1.526786 a 6.1071441,6.1071441 0 0 0 -3.053572,-0.763393 4.6719652,4.6719652 0 0 0 -3.587947,1.526786 5.5575011,5.5575011 0 0 0 -1.374108,3.939108 5.2979475,5.2979475 0 0 0 1.282501,3.740626 4.366608,4.366608 0 0 0 3.374197,1.389375 6.3208941,6.3208941 0 0 0 3.343661,-0.855 z"
     class="cls-4" />
  <path
     style="stroke-width:1.52679"
     id="path22"
     d="m 47.346371,77.37606 a 4.2444651,4.2444651 0 0 1 -3.252054,-1.358839 4.7483045,4.7483045 0 0 1 -1.206161,-3.404733 4.9467867,4.9467867 0 0 1 1.267232,-3.603215 4.580358,4.580358 0 0 1 3.404733,-1.297768 4.1070544,4.1070544 0 0 1 3.190983,1.267232 5.0078581,5.0078581 0 0 1 1.145089,3.49634 4.916251,4.916251 0 0 1 -1.236696,3.511608 4.3360723,4.3360723 0 0 1 -3.313126,1.389375 z m 0.106875,-8.351519 a 2.7940184,2.7940184 0 0 0 -2.229108,0.961875 3.9543758,3.9543758 0 0 0 -0.824464,2.656608 3.7406257,3.7406257 0 0 0 0.824464,2.565 2.8245541,2.8245541 0 0 0 2.229108,0.946607 2.6871434,2.6871434 0 0 0 2.183304,-0.916071 4.0001794,4.0001794 0 0 0 0.763393,-2.626072 4.0612508,4.0612508 0 0 0 -0.763393,-2.64134 2.6718755,2.6718755 0 0 0 -2.183304,-0.946607 z"
     class="cls-4" />
  <path
     style="stroke-width:1.52679"
     id="path24"
     d="m 59.026284,69.482577 a 1.8016075,1.8016075 0 0 0 -1.114554,-0.29009 1.8779468,1.8779468 0 0 0 -1.526786,0.885536 4.0917865,4.0917865 0 0 0 -0.625982,2.412322 v 4.671965 h -1.526786 v -9.160716 h 1.526786 v 1.908483 0 a 3.2062506,3.2062506 0 0 1 0.961875,-1.526786 2.183304,2.183304 0 0 1 1.435179,-0.534375 2.397054,2.397054 0 0 1 0.870268,0.122142 z"
     class="cls-4" />
  <path
     style="stroke-width:1.52679"
     id="path26"
     d="m 67.97325,72.963649 h -6.458305 a 3.4200007,3.4200007 0 0 0 0.778661,2.35125 2.839822,2.839822 0 0 0 2.168036,0.824465 4.580358,4.580358 0 0 0 2.839822,-1.022947 v 1.374107 a 5.3132153,5.3132153 0 0 1 -3.190983,0.870268 3.8780365,3.8780365 0 0 1 -3.053572,-1.251964 5.1147332,5.1147332 0 0 1 -1.114553,-3.511608 5.0078581,5.0078581 0 0 1 1.206161,-3.481072 3.8933043,3.8933043 0 0 1 3.053572,-1.343572 3.4505364,3.4505364 0 0 1 2.77875,1.160358 4.8551795,4.8551795 0 0 1 0.977143,3.236786 z m -1.526786,-1.236697 a 3.053572,3.053572 0 0 0 -0.610714,-1.969554 2.0916968,2.0916968 0 0 0 -1.679465,-0.702321 2.3665183,2.3665183 0 0 0 -1.755804,0.748125 3.3741971,3.3741971 0 0 0 -0.900804,1.939018 z"
     class="cls-4" />
</svg>
