<?xml version="1.0" encoding="UTF-8"?>
<svg xmlns="http://www.w3.org/2000/svg" xmlns:xlink="http://www.w3.org/1999/xlink" width="140pt" height="140pt" viewBox="0 0 140 140" version="1.1">
<g id="surface1">
<path style=" stroke:none;fill-rule:nonzero;fill:rgb(0%,0%,0%);fill-opacity:1;" d="M 138.511719 70.085938 C 138.511719 107.863281 107.886719 138.488281 70.109375 138.488281 C 32.335938 138.488281 1.710938 107.863281 1.710938 70.085938 C 1.710938 32.308594 32.335938 1.6875 70.109375 1.6875 C 107.886719 1.6875 138.511719 32.308594 138.511719 70.085938 Z M 138.511719 70.085938 "/>
<path style=" stroke:none;fill-rule:nonzero;fill:rgb(0%,0%,0%);fill-opacity:1;" d="M 22.703125 20.925781 C 3.753906 37.808594 -4.285156 63.789062 1.808594 88.425781 C 7.90625 113.058594 27.140625 132.289062 51.773438 138.386719 C 76.40625 144.484375 102.390625 136.441406 119.273438 117.496094 Z M 22.703125 20.925781 "/>
<path style=" stroke:none;fill-rule:nonzero;fill:rgb(0%,0%,0%);fill-opacity:1;" d="M 17.527344 81.308594 C 16.722656 81.320312 15.945312 80.996094 15.390625 80.410156 C 14.820312 79.847656 14.503906 79.074219 14.515625 78.273438 C 14.507812 77.472656 14.824219 76.703125 15.390625 76.136719 C 15.941406 75.539062 16.71875 75.207031 17.527344 75.214844 C 18.335938 75.214844 19.109375 75.546875 19.667969 76.136719 C 20.242188 76.695312 20.566406 77.46875 20.5625 78.273438 C 20.570312 79.078125 20.246094 79.851562 19.667969 80.410156 C 19.105469 80.988281 18.332031 81.3125 17.527344 81.308594 Z M 17.527344 81.308594 "/>
<path style=" stroke:none;fill-rule:nonzero;fill:rgb(0%,0%,0%);fill-opacity:1;" d="M 60 80.773438 L 54.402344 80.773438 L 34.371094 49.695312 C 33.875 48.929688 33.457031 48.113281 33.132812 47.257812 L 32.960938 47.257812 C 33.152344 49.03125 33.222656 50.816406 33.175781 52.601562 L 33.175781 80.773438 L 28.621094 80.773438 L 28.621094 41.808594 L 34.542969 41.808594 L 54.035156 72.332031 C 54.847656 73.597656 55.375 74.46875 55.617188 74.9375 L 55.726562 74.9375 C 55.5 73.039062 55.40625 71.125 55.449219 69.210938 L 55.449219 41.808594 L 60 41.808594 Z M 60 80.773438 "/>
<path style=" stroke:none;fill-rule:nonzero;fill:rgb(0%,0%,0%);fill-opacity:1;" d="M 90.824219 80.773438 L 70.109375 80.773438 L 70.109375 41.808594 L 89.863281 41.808594 L 89.863281 45.933594 L 74.769531 45.933594 L 74.769531 58.886719 L 88.835938 58.886719 L 88.835938 62.988281 L 74.769531 62.988281 L 74.769531 76.5 L 90.84375 76.5 Z M 90.824219 80.773438 "/>
<path style=" stroke:none;fill-rule:nonzero;fill:rgb(0%,0%,0%);fill-opacity:1;" d="M 121.410156 45.933594 L 110.082031 45.933594 L 110.082031 80.773438 L 105.53125 80.773438 L 105.53125 45.933594 L 94.328125 45.933594 L 94.328125 41.808594 L 121.410156 41.808594 Z M 121.410156 45.933594 "/>
<path style=" stroke:none;fill-rule:nonzero;fill:rgb(0%,0%,0%);fill-opacity:1;" d="M 57.542969 107.277344 C 56 108.027344 54.296875 108.386719 52.582031 108.328125 C 50.28125 108.429688 48.042969 107.535156 46.449219 105.867188 C 44.878906 104.109375 44.050781 101.8125 44.140625 99.457031 C 44.023438 96.878906 44.957031 94.363281 46.726562 92.488281 C 48.453125 90.71875 50.839844 89.757812 53.308594 89.835938 C 54.773438 89.789062 56.226562 90.042969 57.585938 90.585938 L 57.585938 92.722656 C 56.277344 92 54.804688 91.628906 53.308594 91.652344 C 51.40625 91.601562 49.570312 92.382812 48.289062 93.792969 C 46.953125 95.308594 46.265625 97.289062 46.363281 99.304688 C 46.261719 101.21875 46.90625 103.09375 48.160156 104.542969 C 49.375 105.851562 51.101562 106.558594 52.882812 106.488281 C 54.523438 106.53125 56.144531 106.117188 57.5625 105.292969 Z M 57.542969 107.277344 "/>
<path style=" stroke:none;fill-rule:nonzero;fill:rgb(0%,0%,0%);fill-opacity:1;" d="M 66.285156 108.328125 C 64.5625 108.382812 62.902344 107.6875 61.730469 106.425781 C 60.5625 105.121094 59.957031 103.40625 60.042969 101.65625 C 59.9375 99.804688 60.574219 97.988281 61.816406 96.613281 C 63.085938 95.375 64.8125 94.714844 66.585938 94.796875 C 68.261719 94.707031 69.894531 95.355469 71.050781 96.570312 C 72.1875 97.9375 72.761719 99.6875 72.65625 101.464844 C 72.746094 103.265625 72.121094 105.03125 70.921875 106.382812 C 69.730469 107.667969 68.039062 108.378906 66.285156 108.328125 Z M 66.433594 96.632812 C 65.242188 96.585938 64.09375 97.078125 63.3125 97.980469 C 62.492188 99.039062 62.082031 100.363281 62.160156 101.699219 C 62.085938 103 62.496094 104.277344 63.3125 105.292969 C 64.101562 106.179688 65.25 106.664062 66.433594 106.617188 C 67.597656 106.683594 68.726562 106.210938 69.492188 105.332031 C 70.269531 104.273438 70.648438 102.96875 70.558594 101.65625 C 70.644531 100.339844 70.265625 99.03125 69.492188 97.960938 C 68.734375 97.0625 67.605469 96.574219 66.433594 96.632812 Z M 66.433594 96.632812 "/>
<path style=" stroke:none;fill-rule:nonzero;fill:rgb(0%,0%,0%);fill-opacity:1;" d="M 82.636719 97.277344 C 82.175781 96.972656 81.628906 96.832031 81.078125 96.871094 C 80.203125 96.902344 79.402344 97.367188 78.9375 98.109375 C 78.300781 99.117188 77.996094 100.296875 78.0625 101.488281 L 78.0625 108.027344 L 75.925781 108.027344 L 75.925781 95.203125 L 78.0625 95.203125 L 78.0625 97.875 C 78.296875 97.046875 78.765625 96.304688 79.410156 95.738281 C 79.964844 95.253906 80.679688 94.988281 81.417969 94.988281 C 81.832031 94.96875 82.246094 95.027344 82.636719 95.160156 Z M 82.636719 97.277344 "/>
<path style=" stroke:none;fill-rule:nonzero;fill:rgb(0%,0%,0%);fill-opacity:1;" d="M 95.164062 102.148438 L 86.121094 102.148438 C 86.058594 103.34375 86.449219 104.519531 87.210938 105.441406 C 88.011719 106.238281 89.117188 106.660156 90.246094 106.59375 C 91.695312 106.582031 93.097656 106.074219 94.222656 105.164062 L 94.222656 107.085938 C 92.902344 107.957031 91.335938 108.382812 89.753906 108.304688 C 88.140625 108.386719 86.574219 107.742188 85.480469 106.550781 C 84.367188 105.164062 83.8125 103.410156 83.917969 101.636719 C 83.84375 99.855469 84.445312 98.113281 85.609375 96.761719 C 86.679688 95.527344 88.246094 94.835938 89.882812 94.882812 C 91.359375 94.800781 92.792969 95.398438 93.773438 96.507812 C 94.757812 97.804688 95.242188 99.410156 95.140625 101.039062 Z M 93.023438 100.417969 C 93.070312 99.425781 92.765625 98.453125 92.171875 97.660156 C 91.578125 96.992188 90.710938 96.628906 89.820312 96.675781 C 88.890625 96.664062 87.996094 97.046875 87.359375 97.722656 C 86.65625 98.46875 86.214844 99.421875 86.097656 100.4375 Z M 93.023438 100.417969 "/>
</g>
</svg>
