<?xml version="1.0" encoding="UTF-8"?>
<svg xmlns="http://www.w3.org/2000/svg" xmlns:xlink="http://www.w3.org/1999/xlink" width="482pt" height="140pt" viewBox="0 0 482 140" version="1.1">
<defs>
<linearGradient id="linear0" gradientUnits="userSpaceOnUse" x1="-2031.312" y1="275.868" x2="-1922.296" y2="182.075" gradientTransform="matrix(0.571029,0,0,-0.576724,1157.253371,165.564105)">
<stop offset="0" style="stop-color:rgb(35.294118%,62.352941%,83.137255%);stop-opacity:1;"/>
<stop offset="1" style="stop-color:rgb(18.823529%,41.176471%,59.607843%);stop-opacity:1;"/>
</linearGradient>
<linearGradient id="linear1" gradientUnits="userSpaceOnUse" x1="-1880.151" y1="125.305" x2="-1919.08" y2="180.384" gradientTransform="matrix(0.571029,0,0,-0.576724,1157.253371,165.564105)">
<stop offset="0" style="stop-color:rgb(100%,83.137255%,23.137255%);stop-opacity:1;"/>
<stop offset="1" style="stop-color:rgb(100%,90.980392%,45.098039%);stop-opacity:1;"/>
</linearGradient>
<filter id="alpha" filterUnits="objectBoundingBox" x="0%" y="0%" width="100%" height="100%">
  <feColorMatrix type="matrix" in="SourceGraphic" values="0 0 0 0 1 0 0 0 0 1 0 0 0 0 1 0 0 0 1 0"/>
</filter>
<mask id="mask0">
  <g filter="url(#alpha)">
<rect x="0" y="0" width="482" height="140" style="fill:rgb(0%,0%,0%);fill-opacity:0.443137;stroke:none;"/>
  </g>
</mask>
<radialGradient id="radial0" gradientUnits="userSpaceOnUse" cx="-3393.238" cy="376.791" fx="-3393.238" fy="376.791" r="29.037" gradientTransform="matrix(0,-0.243585,-1.070692,0,460.077574,-693.817825)">
<stop offset="0" style="stop-color:rgb(72.156863%,72.156863%,72.156863%);stop-opacity:0.498039;"/>
<stop offset="1" style="stop-color:rgb(49.803922%,49.803922%,49.803922%);stop-opacity:0;"/>
</radialGradient>
<clipPath id="clip1">
  <rect x="0" y="0" width="482" height="140"/>
</clipPath>
<g id="surface5" clip-path="url(#clip1)">
<path style=" stroke:none;fill-rule:nonzero;fill:url(#radial0);" d="M 93.140625 132.886719 C 93.140625 136.792969 76.808594 139.960938 56.664062 139.960938 C 36.515625 139.960938 20.1875 136.792969 20.1875 132.886719 C 20.1875 128.980469 36.515625 125.8125 56.664062 125.8125 C 76.808594 125.8125 93.140625 128.980469 93.140625 132.886719 Z M 93.140625 132.886719 "/>
</g>
</defs>
<g id="surface1">
<path style=" stroke:none;fill-rule:nonzero;fill:rgb(39.215686%,39.215686%,39.215686%);fill-opacity:1;" d="M 181.738281 59.609375 C 181.738281 44.824219 177.523438 37.230469 169.089844 36.816406 C 165.738281 36.65625 162.460938 37.191406 159.277344 38.429688 C 156.734375 39.339844 155.019531 40.242188 154.121094 41.152344 L 154.121094 76.445312 C 159.511719 79.828125 164.300781 81.402344 168.476562 81.15625 C 177.3125 80.570312 181.738281 73.394531 181.738281 59.609375 Z M 192.136719 60.222656 C 192.136719 67.734375 190.375 73.96875 186.832031 78.925781 C 182.882812 84.539062 177.414062 87.429688 170.417969 87.585938 C 165.144531 87.753906 159.710938 86.101562 154.121094 82.636719 L 154.121094 114.714844 L 145.074219 111.488281 L 145.074219 40.289062 C 146.558594 38.46875 148.46875 36.90625 150.785156 35.578125 C 156.167969 32.441406 162.707031 30.828125 170.40625 30.75 L 170.535156 30.878906 C 177.570312 30.789062 182.992188 33.679688 186.800781 39.539062 C 190.355469 44.910156 192.136719 51.800781 192.136719 60.222656 Z M 247.410156 81.273438 C 247.410156 91.347656 246.398438 98.324219 244.382812 102.203125 C 242.355469 106.082031 238.492188 109.179688 232.796875 111.488281 C 228.175781 113.308594 223.175781 114.296875 217.8125 114.46875 L 216.320312 108.765625 C 221.769531 108.027344 225.609375 107.28125 227.835938 106.539062 C 232.21875 105.054688 235.226562 102.78125 236.882812 99.730469 C 238.207031 97.246094 238.859375 92.507812 238.859375 85.492188 L 238.859375 83.136719 C 232.675781 85.945312 226.195312 87.34375 219.417969 87.34375 C 214.964844 87.34375 211.035156 85.945312 207.652344 83.136719 C 203.851562 80.078125 201.953125 76.199219 201.953125 71.496094 L 201.953125 33.847656 L 210.996094 30.75 L 210.996094 68.644531 C 210.996094 72.691406 212.300781 75.808594 214.914062 77.996094 C 217.527344 80.183594 220.910156 81.234375 225.054688 81.152344 C 229.203125 81.0625 233.644531 79.460938 238.363281 76.324219 L 238.363281 32.113281 L 247.410156 32.113281 Z M 282.714844 87.09375 C 281.722656 87.175781 280.730469 87.21875 279.734375 87.21875 C 274.621094 87.21875 270.632812 86.003906 267.78125 83.558594 C 264.941406 81.113281 263.519531 77.742188 263.519531 73.433594 L 263.519531 37.804688 L 257.324219 37.804688 L 257.324219 32.117188 L 263.519531 32.117188 L 263.519531 17.003906 L 272.550781 13.785156 L 272.550781 32.117188 L 282.714844 32.117188 L 282.714844 37.804688 L 272.550781 37.804688 L 272.550781 73.1875 C 272.550781 76.582031 273.460938 78.988281 275.28125 80.394531 C 276.84375 81.550781 279.328125 82.214844 282.710938 82.382812 L 282.710938 87.09375 Z M 337.472656 86.351562 L 328.429688 86.351562 L 328.429688 51.433594 C 328.429688 47.882812 327.597656 44.824219 325.945312 42.269531 C 324.035156 39.378906 321.382812 37.933594 317.980469 37.933594 C 313.832031 37.933594 308.648438 40.121094 302.425781 44.496094 L 302.425781 86.351562 L 293.382812 86.351562 L 293.382812 2.890625 L 302.425781 0.0390625 L 302.425781 38.054688 C 308.203125 33.847656 314.515625 31.738281 321.375 31.738281 C 326.164062 31.738281 330.042969 33.351562 333.011719 36.570312 C 335.988281 39.785156 337.472656 43.792969 337.472656 48.582031 Z M 385.542969 58.183594 C 385.542969 52.503906 384.464844 47.8125 382.316406 44.101562 C 379.761719 39.578125 375.792969 37.191406 370.433594 36.945312 C 360.515625 37.519531 355.570312 44.625 355.570312 58.242188 C 355.570312 64.488281 356.597656 69.703125 358.675781 73.890625 C 361.328125 79.226562 365.304688 81.859375 370.609375 81.769531 C 380.5625 81.6875 385.542969 73.832031 385.542969 58.183594 Z M 395.445312 58.242188 C 395.445312 66.328125 393.378906 73.058594 389.25 78.433594 C 384.707031 84.449219 378.4375 87.46875 370.433594 87.46875 C 362.496094 87.46875 356.3125 84.449219 351.847656 78.433594 C 347.800781 73.058594 345.78125 66.328125 345.78125 58.242188 C 345.78125 50.644531 347.96875 44.25 352.34375 39.042969 C 356.964844 33.519531 363.039062 30.75 370.550781 30.75 C 378.058594 30.75 384.175781 33.519531 388.886719 39.042969 C 393.257812 44.25 395.445312 50.644531 395.445312 58.242188 Z M 447.292969 86.351562 L 438.25 86.351562 L 438.25 49.453125 C 438.25 45.40625 437.035156 42.25 434.601562 39.972656 C 432.164062 37.707031 428.917969 36.609375 424.871094 36.695312 C 420.578125 36.777344 416.492188 38.179688 412.613281 40.902344 L 412.613281 86.351562 L 403.570312 86.351562 L 403.570312 39.785156 C 408.773438 35.996094 413.5625 33.519531 417.9375 32.363281 C 422.0625 31.285156 425.703125 30.75 428.839844 30.75 C 430.988281 30.75 433.007812 30.957031 434.90625 31.375 C 438.457031 32.195312 441.347656 33.71875 443.574219 35.957031 C 446.058594 38.429688 447.292969 41.398438 447.292969 44.871094 Z M 447.292969 86.351562 "/>
<path style=" stroke:none;fill-rule:nonzero;fill:url(#linear0);" d="M 55.75 3.222656 C 51.097656 3.246094 46.65625 3.644531 42.746094 4.335938 C 31.226562 6.371094 29.136719 10.628906 29.136719 18.488281 L 29.136719 28.863281 L 56.355469 28.863281 L 56.355469 32.320312 L 18.921875 32.320312 C 11.011719 32.320312 4.082031 37.078125 1.917969 46.125 C -0.582031 56.496094 -0.691406 62.964844 1.917969 73.792969 C 3.851562 81.851562 8.472656 87.59375 16.382812 87.59375 L 25.742188 87.59375 L 25.742188 75.15625 C 25.742188 66.171875 33.515625 58.246094 42.746094 58.246094 L 69.933594 58.246094 C 77.5 58.246094 83.542969 52.011719 83.542969 44.410156 L 83.542969 18.484375 C 83.542969 11.109375 77.320312 5.566406 69.933594 4.335938 C 65.253906 3.554688 60.40625 3.203125 55.75 3.222656 Z M 41.03125 11.570312 C 43.84375 11.570312 46.140625 13.902344 46.140625 16.773438 C 46.140625 19.632812 43.84375 21.945312 41.03125 21.945312 C 38.210938 21.945312 35.925781 19.632812 35.925781 16.773438 C 35.925781 13.902344 38.210938 11.570312 41.03125 11.570312 Z M 41.03125 11.570312 "/>
<path style=" stroke:none;fill-rule:nonzero;fill:url(#linear1);" d="M 86.9375 32.320312 L 86.9375 44.410156 C 86.9375 53.78125 78.992188 61.671875 69.933594 61.671875 L 42.746094 61.671875 C 35.296875 61.671875 29.136719 68.046875 29.136719 75.503906 L 29.136719 101.429688 C 29.136719 108.804688 35.550781 113.144531 42.746094 115.261719 C 51.359375 117.796875 59.625 118.253906 69.933594 115.261719 C 76.785156 113.277344 83.542969 109.285156 83.542969 101.429688 L 83.542969 91.054688 L 56.355469 91.054688 L 56.355469 87.59375 L 97.152344 87.59375 C 105.0625 87.59375 108.007812 82.074219 110.761719 73.792969 C 113.601562 65.265625 113.480469 57.0625 110.761719 46.125 C 108.804688 38.246094 105.070312 32.320312 97.152344 32.320312 Z M 71.644531 97.96875 C 74.464844 97.96875 76.753906 100.28125 76.753906 103.140625 C 76.753906 106.011719 74.464844 108.34375 71.644531 108.34375 C 68.832031 108.34375 66.539062 106.011719 66.539062 103.140625 C 66.539062 100.28125 68.835938 97.96875 71.644531 97.96875 Z M 71.644531 97.96875 "/>
<path style=" stroke:none;fill-rule:nonzero;fill:rgb(39.215686%,39.215686%,39.215686%);fill-opacity:1;" d="M 464.90625 24.050781 L 466.492188 24.050781 L 466.492188 14.105469 L 470.246094 14.105469 L 470.246094 12.917969 L 461.148438 12.917969 L 461.148438 14.105469 L 464.90625 14.105469 L 464.90625 24.050781 M 471.65625 24.050781 L 473.007812 24.050781 L 473.007812 14.964844 L 475.949219 24.050781 L 477.457031 24.050781 L 480.519531 14.996094 L 480.519531 24.050781 L 482 24.050781 L 482 12.917969 L 480.042969 12.917969 L 476.695312 22.457031 L 473.839844 12.917969 L 471.65625 12.917969 L 471.65625 24.050781 "/>
<use xlink:href="#surface5" mask="url(#mask0)"/>
</g>
</svg>
